<svg width="28" height="30" viewBox="0 0 28 30" fill="none" xmlns="http://www.w3.org/2000/svg">
<path d="M13.9734 28.3184C15.8083 28.3183 17.6251 27.954 19.3202 27.2464C21.0154 26.5388 22.5556 25.5016 23.8529 24.1942C25.1503 22.8868 26.1794 21.3347 26.8814 19.6265C27.5835 17.9183 27.9448 16.0875 27.9447 14.2386C27.9446 12.3897 27.5831 10.5589 26.8809 8.85084C26.1786 7.14272 25.1494 5.59071 23.8519 4.28342C22.5544 2.97613 21.0141 1.93915 19.3189 1.2317C17.6237 0.524253 15.8068 0.160183 13.972 0.160279L13.9727 14.2393L13.9734 28.3184Z" fill="#0469FF"/>
<path fill-rule="evenodd" clip-rule="evenodd" d="M7.69089 1.11024C9.20036 0.485884 10.818 0.164954 12.4515 0.165773L12.4453 12.6047L0.00634766 12.5985C0.0071682 10.965 0.329723 9.34762 0.955597 7.83877C1.58147 6.32992 2.49841 4.95912 3.65405 3.80464C4.80969 2.65016 6.18141 1.7346 7.69089 1.11024ZM8.55565 11.0484C9.84432 11.0484 10.889 10.0038 10.889 8.71509C10.889 7.42643 9.84432 6.38176 8.55565 6.38176C7.26699 6.38176 6.22232 7.42643 6.22232 8.71509C6.22232 10.0038 7.26699 11.0484 8.55565 11.0484Z" fill="#B5B2FF"/>
</svg>
